<svg width="97" height="16" viewBox="0 0 97 16" fill="none" xmlns="http://www.w3.org/2000/svg">
    <path d="M0 15.2311H4.425V10.5539C4.425 9.20143 5.98037 8.48764 8.66123 8.61913V5.05016C6.63653 4.99381 5.23113 5.5949 4.425 7.22911V4.8811H0V15.2311Z" fill="#165ECB"/>
    <path d="M18.8444 11.6621C18.6381 12.2069 18.0007 12.6765 16.5759 12.6765C15.2074 12.6765 14.1013 12.2257 13.8013 10.9483H22.95V9.99036C22.95 6.45896 20.0629 4.8811 16.3697 4.8811C12.4328 4.8811 9.41449 6.83464 9.41449 10.0467V10.197C9.41449 13.4466 12.3016 15.2311 16.426 15.2311C20.3816 15.2311 22.5188 13.935 22.95 11.6621H18.8444ZM16.3697 7.34181C17.9445 7.34181 18.6381 7.92412 18.7131 8.8821H13.8763C14.2888 7.66114 15.3011 7.34181 16.3697 7.34181Z" fill="#165ECB"/>
    <path d="M30.0992 15.2311C31.1492 15.2311 31.9555 15.0623 32.5367 14.9311V12.0811C32.1055 12.2123 31.768 12.2498 31.2992 12.2498C30.418 12.2498 29.9117 11.9686 29.9117 11.2373V7.74981H32.518V5.18106H29.9117V2.96856H25.543V5.18106H23.9492V7.74981H25.543V11.5748C25.543 14.1436 27.1555 15.2311 30.0992 15.2311Z" fill="black"/>
    <path d="M42.851 11.6686C42.6447 12.2123 42.0072 12.6811 40.5822 12.6811C39.2135 12.6811 38.1072 12.2311 37.8072 10.9561H46.9572V9.99981C46.9572 6.47481 44.0697 4.89981 40.376 4.89981C36.4385 4.89981 33.4197 6.84981 33.4197 10.0561V10.2061C33.4197 13.4498 36.3072 15.2311 40.4322 15.2311C44.3885 15.2311 46.526 13.9373 46.9572 11.6686H42.851ZM40.376 7.35606C41.951 7.35606 42.6447 7.93731 42.7197 8.89356H37.8822C38.2947 7.67481 39.3072 7.35606 40.376 7.35606Z" fill="black"/>
    <path d="M46.4838 14.9873H50.965L53.4025 12.0811L55.7838 14.9873H60.8463L56.365 9.68106L60.415 5.18106H55.915L53.89 7.63731L51.8088 5.18106H46.765L50.7963 9.94356L46.4838 14.9873Z" fill="black"/>
    <path d="M66.9583 15.2311C68.0083 15.2311 68.8146 15.0623 69.3958 14.9311V12.0811C68.9646 12.2123 68.6271 12.2498 68.1583 12.2498C67.2771 12.2498 66.7708 11.9686 66.7708 11.2373V7.74981H69.3771V5.18106H66.7708V2.96856H62.4021V5.18106H60.8083V7.74981H62.4021V11.5748C62.4021 14.1436 64.0146 15.2311 66.9583 15.2311Z" fill="black"/>
    <path d="M73.2226 15.2123C74.7226 15.2123 75.6789 14.3311 75.6789 13.1873C75.6789 12.0623 74.7039 11.1623 73.2226 11.1623C71.7226 11.1623 70.7851 12.0623 70.7851 13.1873C70.7851 14.3311 71.7226 15.2123 73.2226 15.2123Z" fill="black"/>
    <path d="M81.3515 15.2311C83.5827 15.2311 84.7452 14.5936 85.364 13.8248V14.9873H89.6202V8.68731C89.6202 6.06231 87.3327 4.89981 83.6577 4.89981C80.0577 4.89981 77.5827 6.09981 77.3765 8.48106H81.4827C81.614 7.97481 82.1202 7.50606 83.3952 7.50606C84.8952 7.50606 85.2702 8.03106 85.2702 8.87481V9.00606H82.8702C78.8015 9.00606 76.8702 9.88731 76.8702 12.1373C76.8702 14.2936 78.989 15.2311 81.3515 15.2311ZM82.9077 12.7186C81.7827 12.7186 81.2202 12.4373 81.2202 11.8936C81.2202 11.3123 81.6702 11.0873 82.9265 11.0873H85.2702V11.4811C85.2702 12.3061 84.2015 12.7186 82.9077 12.7186Z" fill="black"/>
    <path d="M93.6358 4.43106C95.0045 4.43106 96.0545 3.77481 96.0545 2.57481C96.0545 1.37481 95.0045 0.737305 93.6358 0.737305C92.267 0.737305 91.2545 1.37481 91.2545 2.57481C91.2545 3.77481 92.267 4.43106 93.6358 4.43106ZM91.4608 14.9873H95.867V5.18106H91.4608V14.9873Z" fill="black"/>
</svg>
